<?xml version="1.0" standalone="no"?>
<!DOCTYPE svg PUBLIC "-//W3C//DTD SVG 20010904//EN"
 "http://www.w3.org/TR/2001/REC-SVG-20010904/DTD/svg10.dtd">
<svg version="1.0" xmlns="http://www.w3.org/2000/svg"
 width="192.000000pt" height="192.000000pt" viewBox="0 0 192.000000 192.000000"
 preserveAspectRatio="xMidYMid meet">
<metadata>
Created by potrace 1.14, written by Peter Selinger 2001-2017
</metadata>
<g transform="translate(0.000000,192.000000) scale(0.100000,-0.100000)"
fill="#000000" stroke="none">
<path d="M378 1462 c-14 -3 -14 -9 -2 -55 7 -29 15 -63 18 -77 2 -14 19 -88
36 -165 41 -181 70 -314 76 -345 3 -14 14 -65 25 -113 12 -49 22 -95 23 -102
1 -8 5 -17 8 -20 12 -12 262 99 286 127 6 8 13 28 17 45 3 18 10 44 15 59 6
15 8 29 6 32 -3 2 -1 12 3 21 5 9 12 32 15 52 3 20 10 47 15 60 5 13 8 26 8
29 -1 16 26 110 32 110 9 0 27 -56 36 -109 3 -19 8 -37 10 -41 2 -4 7 -22 10
-41 3 -19 9 -36 13 -39 4 -3 6 -4 5 -2 -1 2 5 11 13 20 8 10 14 21 13 26 0 5
3 12 8 15 11 7 50 90 58 124 4 13 2 42 -4 63 -5 22 -12 50 -15 64 -2 14 -13
63 -24 110 -12 47 -24 101 -27 120 l-6 35 -77 -2 c-42 -1 -82 -2 -87 -2 -6 -1
-17 -29 -25 -63 -8 -35 -15 -67 -16 -73 -2 -5 -5 -19 -7 -30 -3 -11 -17 -72
-32 -135 -14 -63 -28 -124 -30 -135 -3 -11 -7 -29 -9 -40 -12 -55 -47 -202
-52 -214 -8 -23 -23 0 -28 43 -3 21 -8 46 -10 55 -3 9 -7 32 -10 51 -3 19 -8
46 -11 60 -3 14 -7 36 -10 50 -3 14 -7 35 -9 46 -2 12 -7 38 -10 58 -3 20 -18
93 -32 164 -14 70 -26 135 -27 145 -1 9 -6 17 -12 18 -32 3 -164 4 -177 1z"/>
<path d="M1361 1455 c-4 -5 -15 -50 -25 -100 -9 -49 -20 -101 -23 -115 -3 -14
-7 -79 -8 -145 -5 -232 -28 -346 -103 -505 -9 -19 -15 -38 -14 -42 1 -5 -2 -8
-7 -8 -5 0 -13 -10 -17 -22 -3 -12 -13 -29 -21 -36 -9 -9 -11 -17 -5 -21 15
-9 183 -4 192 5 7 8 30 101 44 179 2 11 9 38 14 60 6 22 13 51 16 65 2 14 16
79 31 145 31 143 33 153 39 183 3 13 7 31 10 40 3 9 7 28 10 42 2 14 10 48 16
75 7 28 14 59 15 70 2 11 10 46 18 78 8 31 12 57 9 58 -51 6 -185 2 -191 -6z"/>
</g>
</svg>
